<svg xmlns="http://www.w3.org/2000/svg" viewBox="0 0 1254 1254" width="1254" height="1254" role="img" aria-label="Minimal rabbit silhouette" shape-rendering="geometricPrecision">
  <title>Minimal rabbit silhouette</title>
  <path d="M 570 253 L 569 256 L 572 273 L 581 300 L 596 328 L 610 346 L 632 353 L 670 369 L 714 392 L 745 412 L 768 430 L 789 451 L 809 479 L 807 480 L 741 437 L 682 402 L 614 368 L 581 356 L 551 348 L 513 343 L 493 344 L 502 364 L 513 381 L 528 400 L 556 428 L 592 454 L 625 472 L 667 489 L 717 503 L 764 511 L 765 513 L 735 586 L 734 587 L 697 576 L 639 563 L 602 557 L 559 553 L 512 553 L 490 555 L 453 563 L 429 572 L 399 588 L 381 601 L 354 627 L 340 645 L 324 672 L 311 701 L 302 728 L 294 762 L 265 754 L 245 751 L 238 752 L 234 772 L 234 792 L 237 808 L 241 819 L 251 835 L 258 842 L 268 849 L 276 853 L 292 858 L 305 860 L 318 860 L 411 970 L 674 970 L 673 956 L 664 931 L 658 922 L 648 912 L 637 906 L 627 903 L 504 903 L 503 902 L 561 852 L 573 840 L 578 832 L 579 816 L 576 796 L 572 782 L 563 761 L 550 742 L 533 725 L 518 714 L 502 705 L 503 704 L 513 705 L 535 712 L 553 723 L 568 737 L 577 749 L 589 772 L 598 801 L 600 816 L 599 827 L 600 829 L 598 836 L 599 838 L 697 839 L 812 969 L 917 969 L 915 953 L 912 945 L 906 934 L 897 924 L 885 917 L 876 914 L 844 908 L 798 829 L 892 663 L 896 660 L 989 652 L 991 651 L 1016 611 L 1018 607 L 1018 602 L 929 499 L 856 481 L 825 433 L 790 388 L 765 361 L 721 322 L 685 297 L 648 277 L 604 260 Z" fill="#ffffff"/>
</svg>
